ModelForces
version=1
nRows=4
nColumns=155
inDegrees=no

This file contains the forces exerted on a model during a simulation.

A force is a generalized force, meaning that it can be either a force (N) or a torque (Nm).

Units are S.I. units (second, meters, Newtons, ...)
Angles are in degrees.

endheader
time	glut_med1_r	glut_med2_r	glut_med3_r	glut_min1_r	glut_min2_r	glut_min3_r	semimem_r	semiten_r	bifemlh_r	bifemsh_r	sar_r	add_long_r	add_brev_r	add_mag1_r	add_mag2_r	add_mag3_r	tfl_r	pect_r	grac_r	glut_max1_r	glut_max2_r	glut_max3_r	iliacus_r	psoas_r	quad_fem_r	gem_r	peri_r	rect_fem_r	vas_med_r	vas_int_r	vas_lat_r	med_gas_r	lat_gas_r	soleus_r	tib_post_r	flex_dig_r	flex_hal_r	tib_ant_r	per_brev_r	per_long_r	per_tert_r	ext_dig_r	ext_hal_r	glut_med1_l	glut_med2_l	glut_med3_l	glut_min1_l	glut_min2_l	glut_min3_l	semimem_l	semiten_l	bifemlh_l	bifemsh_l	sar_l	add_long_l	add_brev_l	add_mag1_l	add_mag2_l	add_mag3_l	tfl_l	pect_l	grac_l	glut_max1_l	glut_max2_l	glut_max3_l	iliacus_l	psoas_l	quad_fem_l	gem_l	peri_l	rect_fem_l	vas_med_l	vas_int_l	vas_lat_l	med_gas_l	lat_gas_l	soleus_l	tib_post_l	flex_dig_l	flex_hal_l	tib_ant_l	per_brev_l	per_long_l	per_tert_l	ext_dig_l	ext_hal_l	ercspn_r	ercspn_l	intobl_r	intobl_l	extobl_r	extobl_l	femur_lat_meniscii_r.femur_lat_r.force.X	femur_lat_meniscii_r.femur_lat_r.force.Y	femur_lat_meniscii_r.femur_lat_r.force.Z	femur_lat_meniscii_r.femur_lat_r.torque.X	femur_lat_meniscii_r.femur_lat_r.torque.Y	femur_lat_meniscii_r.femur_lat_r.torque.Z	femur_lat_meniscii_r.meniscus_lat_r.force.X	femur_lat_meniscii_r.meniscus_lat_r.force.Y	femur_lat_meniscii_r.meniscus_lat_r.force.Z	femur_lat_meniscii_r.meniscus_lat_r.torque.X	femur_lat_meniscii_r.meniscus_lat_r.torque.Y	femur_lat_meniscii_r.meniscus_lat_r.torque.Z	femur_med_meniscii_r.femur_med_r.force.X	femur_med_meniscii_r.femur_med_r.force.Y	femur_med_meniscii_r.femur_med_r.force.Z	femur_med_meniscii_r.femur_med_r.torque.X	femur_med_meniscii_r.femur_med_r.torque.Y	femur_med_meniscii_r.femur_med_r.torque.Z	femur_med_meniscii_r.meniscus_med_r.force.X	femur_med_meniscii_r.meniscus_med_r.force.Y	femur_med_meniscii_r.meniscus_med_r.force.Z	femur_med_meniscii_r.meniscus_med_r.torque.X	femur_med_meniscii_r.meniscus_med_r.torque.Y	femur_med_meniscii_r.meniscus_med_r.torque.Z	femur_med_tibia_r.tibia_upper_r.force.X	femur_med_tibia_r.tibia_upper_r.force.Y	femur_med_tibia_r.tibia_upper_r.force.Z	femur_med_tibia_r.tibia_upper_r.torque.X	femur_med_tibia_r.tibia_upper_r.torque.Y	femur_med_tibia_r.tibia_upper_r.torque.Z	femur_med_tibia_r.femur_med_r.force.X	femur_med_tibia_r.femur_med_r.force.Y	femur_med_tibia_r.femur_med_r.force.Z	femur_med_tibia_r.femur_med_r.torque.X	femur_med_tibia_r.femur_med_r.torque.Y	femur_med_tibia_r.femur_med_r.torque.Z	femur_lat_tibia_r.tibia_upper_r.force.X	femur_lat_tibia_r.tibia_upper_r.force.Y	femur_lat_tibia_r.tibia_upper_r.force.Z	femur_lat_tibia_r.tibia_upper_r.torque.X	femur_lat_tibia_r.tibia_upper_r.torque.Y	femur_lat_tibia_r.tibia_upper_r.torque.Z	femur_lat_tibia_r.femur_lat_r.force.X	femur_lat_tibia_r.femur_lat_r.force.Y	femur_lat_tibia_r.femur_lat_r.force.Z	femur_lat_tibia_r.femur_lat_r.torque.X	femur_lat_tibia_r.femur_lat_r.torque.Y	femur_lat_tibia_r.femur_lat_r.torque.Z	aACL_R	pACL_R	aPCL_R	pPCL_R	aMCL_R	mMCL_R	pMCL_R	aLCL_R	mLCL_R	pLCL_R	aPCL_L	pPCL_L	aMCL_L	aLCL_L
      0.12889035	     13.81250982	     27.02127586	    142.22787435	      4.42165234	      4.95569791	     10.68175616	    186.37344072	    162.47977181	    258.57589201	    238.96861508	     95.57005201	      8.23316617	      7.30638099	     19.42591455	     15.86171318	     83.33211028	      0.00000000	      2.82118979	     97.79988936	      9.70960280	     14.58538239	     59.09992815	      9.05130696	      8.62421030	    188.57923609	     36.83042562	     73.84712824	     22.04255162	     39.14993419	     41.95876385	     56.22122746	      0.00000000	      0.00000000	      0.00000000	      0.00000000	      0.00000000	      0.00000000	     36.47311949	      1.45577630	      1.79703055	    108.52660011	     40.03901526	     10.35282997	     13.85907900	      9.96491908	     10.73988021	      4.56844320	      5.26338486	      5.85452813	     17.45953872	      7.46180429	     15.08613461	     12.55218447	      2.60458903	      9.93731059	      7.07942907	      5.11876404	      4.35991005	      7.43900105	      6.23770587	      3.86089427	      2.69670525	      6.43991070	      9.80022533	      7.38373711	     30.54411733	     21.94714105	      6.30506987	      4.15158255	      8.48032618	     20.80715318	     11.77921929	     13.64553642	     14.65689679	     30.24411408	     14.06208448	     64.55684607	     56.56280598	      6.89249366	      6.76211752	     16.19264253	      8.73281908	     21.93849378	      3.39121491	     10.66051463	      3.32758404	     43.01749648	     43.01749648	     16.19502226	     16.19502226	     33.31572966	     33.31572966	   -132.42039219	     95.31131560	     11.08771789	     -2.30844664	     -7.52735219	     37.18518722	    132.42039219	    -95.31131560	    -11.08771789	      2.74331150	      3.47022156	      2.88396304	    -18.65709759	     23.70929113	      9.08717462	      0.51014529	     -3.21345167	      9.43421837	     18.65709759	    -23.70929113	     -9.08717462	     -0.25581052	     -0.28026014	      0.20338436	    818.66933563	  -1052.66349613	    262.84631764	    -23.29672664	    -17.50178087	      2.53700100	   -818.66933563	   1052.66349613	   -262.84631764	     19.20156615	    121.10563241	    425.13714674	      0.00000000	      0.00000000	      0.00000000	      0.00000000	      0.00000000	      0.00000000	      0.00000000	      0.00000000	      0.00000000	      0.00000000	      0.00000000	      0.00000000	      0.00000000	      0.00000000	    817.28531256	    526.71881103	     45.12173454	      0.00000000	      0.00000000	      0.00000000	      0.00000000	      0.00000000	      0.00000000	      0.00000000	      0.00000001	      0.00000000
      0.12900112	     13.80319102	     27.01550546	    142.22312471	      4.41894908	      4.95259120	     10.67814665	    186.42572393	    162.49910080	    258.90469031	    238.97017115	     95.53936969	      8.22790115	      7.30195008	     19.42211898	     15.85817544	     83.32827779	      0.00000000	      2.81945936	     97.78645547	      9.70329637	     14.57589340	     59.09506906	      9.04553434	      8.61856229	    188.57692617	     36.82921874	     73.84374904	     22.04978169	     39.16218298	     41.95539137	     56.21039471	      0.00000000	      0.00000000	      0.00000000	      0.00000000	      0.00000000	      0.00000000	     36.49631602	      1.45122604	      1.78974930	     15.80496295	     40.11818077	     10.37403068	     13.84972717	      9.95857578	     10.73296683	      4.56564808	      5.26031220	      5.85058501	     17.44706441	      7.45679683	     15.07540980	     12.54433235	      2.60300279	      9.93091647	      7.07513736	      5.11551505	      4.35708283	      7.43389229	      6.23453059	      3.85851480	      2.69503474	      6.43578699	      9.79393901	      7.37893768	     30.53232998	     21.93370340	      6.30113108	      4.14962999	      8.47419647	     20.79240877	     11.77148768	     13.63646130	     14.64713351	     30.22228227	     14.05190341	     64.51003487	     56.54201637	      6.88743008	      6.75714063	     16.18129331	      8.72651304	     21.92503483	      3.38914620	     10.65280279	      3.32519044	     42.99112001	     42.99112001	     16.18436371	     16.18436371	     33.30598151	     33.30598151	   -132.33496458	     95.62170074	     11.10895744	     -2.31500351	     -7.53265193	     37.31009941	    132.33496458	    -95.62170074	    -11.10895744	      2.75132713	      3.46697713	      2.88337615	    -18.60597893	     23.63668090	      9.00866734	      0.50869961	     -3.18312269	      9.40426598	     18.60597893	    -23.63668090	     -9.00866734	     -0.25606151	     -0.28040911	      0.20503268	    817.29129192	  -1053.48333187	    262.19651039	    -23.28358755	    -17.44710303	      2.55333386	   -817.29129192	   1053.48333187	   -262.19651039	     19.19957285	    120.80366922	    425.45483909	      0.00000000	      0.00000000	      0.00000000	      0.00000000	      0.00000000	      0.00000000	      0.00000000	      0.00000000	      0.00000000	      0.00000000	      0.00000000	      0.00000000	      0.00000000	      0.00000000	    818.68019607	    527.49217511	     44.88765611	      0.00000000	      0.00000000	      0.00000000	      0.00000000	      0.00000000	      0.00000000	      0.00000000	      0.00000001	      0.00000000
      0.12911188	     13.79388633	     27.00974384	    142.21838219	      4.41624986	      4.94948919	     10.67454277	    186.47524785	    162.51590434	    259.22888059	    238.96119210	     95.50655046	      8.22264412	      7.29752578	     19.41832919	     15.85464315	     83.32445116	      0.00000000	      2.81773154	     97.77113402	      9.69699951	     14.56641881	     59.09021735	      9.03977053	      8.61292297	    188.57461970	     36.82801369	     73.84037518	     22.05626213	     39.15766987	     41.94442813	     56.19334898	      0.00000000	      0.00000000	      0.00000000	      0.00000000	      0.00000000	      0.00000000	     36.51858641	      1.44670477	      1.78254218	     19.61771688	     40.20037885	     10.39514670	     13.84038950	      9.95224207	     10.72606395	      4.56285713	      5.25724419	      5.84664787	     17.43460806	      7.45179696	     15.06470071	     12.53649206	      2.60141891	      9.92453205	      7.07085205	      5.11227099	      4.35425992	      7.42879124	      6.23136012	      3.85613890	      2.69336675	      6.43166956	      9.78766227	      7.37414556	     30.52056082	     21.92028639	      6.29719822	      4.14768046	      8.46807546	     20.77768609	     11.76376792	     13.62740009	     14.63738528	     30.20048053	     14.04173641	     64.46329020	     56.52125814	      6.88237287	      6.75217019	     16.16996100	      8.72021618	     21.91159585	      3.38708067	     10.64510263	      3.32280055	     42.96478305	     42.96478305	     16.17372134	     16.17372134	     33.29624849	     33.29624849	   -132.66011589	     95.74375973	     11.28763875	     -2.31941132	     -7.61323259	     37.35238445	    132.66011589	    -95.74375973	    -11.28763875	      2.76048601	      3.47863908	      2.90178718	    -18.40042101	     23.52261854	      8.98449774	      0.50583831	     -3.17794333	      9.35951190	     18.40042101	    -23.52261854	     -8.98449774	     -0.25372126	     -0.27679752	      0.20180289	    815.46298835	  -1054.37860889	    262.74672530	    -23.31355638	    -17.41271944	      2.55230338	   -815.46298835	   1054.37860889	   -262.74672530	     19.21310319	    120.98717400	    425.80872380	      0.00000000	      0.00000000	      0.00000000	      0.00000000	      0.00000000	      0.00000000	      0.00000000	      0.00000000	      0.00000000	      0.00000000	      0.00000000	      0.00000000	      0.00000000	      0.00000000	    820.07317455	    528.26808401	     44.62781621	      0.00000000	      0.00000000	      0.00000000	      0.00000000	      0.00000000	      0.00000000	      0.00000000	      0.00000001	      0.00000000
      0.12935489	     13.77352170	     26.99713387	    142.20800223	      4.41034208	      4.94269991	     10.66665571	    186.57490215	    162.54484646	    259.92631517	    238.91676575	     95.42841013	      8.21113846	      7.28784223	     19.41003482	     15.84691258	     83.31607621	      0.00000000	      2.81394987	     97.73176061	      9.68321799	     14.54568241	     59.07959880	      9.02715586	      8.60058098	    188.56957142	     36.82537625	     73.83299179	     22.06944071	     39.12823404	     41.91138237	     56.14806782	      0.00000000	      0.00000000	      0.00000000	      0.00000000	      0.00000000	      0.00000000	     36.56619970	      1.43683456	      1.76694233	     21.75938983	     40.38448830	     10.44142405	     13.81995268	      9.93837982	     10.71095606	      4.55674859	      5.25052940	      5.83803089	     17.40734240	      7.44085408	     15.04126054	     12.51933233	      2.59795226	      9.91055888	      7.06147273	      5.10517093	      4.34808166	      7.41762675	      6.22442108	      3.85093880	      2.68971605	      6.42265811	      9.77392488	      7.36365744	     30.49480348	     21.89092239	      6.28859048	      4.14341390	      8.45467673	     20.74546133	     11.74687270	     13.60756893	     14.61605080	     30.15275392	     14.01947982	     64.36096762	     56.47582550	      6.87129990	      6.74128780	     16.14515764	      8.70643335	     21.88218127	      3.38256013	     10.62824973	      3.31757025	     42.90713940	     42.90713940	     16.15042914	     16.15042914	     33.27494770	     33.27494770	   -133.24834752	     96.13799117	     11.61183643	     -2.32988776	     -7.75933809	     37.49759015	    133.24834752	    -96.13799117	    -11.61183643	      2.78008553	      3.49962332	      2.93602544	    -18.14306591	     23.34391029	      8.85238289	      0.50197805	     -3.13117895	      9.28787569	     18.14306591	    -23.34391029	     -8.85238289	     -0.25270917	     -0.27318759	      0.20038638	    813.28629822	  -1057.61862085	    261.16869609	    -23.30130600	    -17.29818205	      2.58335185	   -813.28629822	   1057.61862085	   -261.16869609	     19.23175999	    120.27239875	    427.08971669	      0.00000000	      0.00000000	      0.00000000	      0.00000000	      0.00000000	      0.00000000	      0.00000000	      0.00000000	      0.00000000	      0.00000000	      0.00000000	      0.00000000	      0.00000000	      0.00000000	    823.09077577	    529.89562168	     44.07144302	      0.00000000	      0.00000000	      0.00000000	      0.00000000	      0.00000000	      0.00000000	      0.00000000	      0.00000001	      0.00000000
